<svg width="40" height="40" viewBox="0 0 40 40" fill="none" xmlns="http://www.w3.org/2000/svg">
<g clip-path="url(#clip0_54058_382)">
<path d="M15 10V11.6667C15 14.4281 17.2385 16.6667 20 16.6667C22.7615 16.6667 25 14.4281 25 11.6667V10" stroke="#131118" stroke-width="1.5" stroke-linecap="round" stroke-linejoin="round"/>
<path d="M26.0193 5H13.981C10.7221 5 7.94082 7.35608 7.40505 10.5707L4.62727 27.2373C3.95002 31.3008 7.08363 35 11.2032 35H28.7972C32.9167 35 36.0503 31.3008 35.373 27.2373L32.5953 10.5707C32.0595 7.35608 29.2782 5 26.0193 5Z" stroke="#131118" stroke-width="1.5" stroke-linejoin="round"/>
<circle cx="31.5" cy="32.5" r="7.5" fill="#14111C"/>
<path d="M29.1332 37V36.2045L31.5941 33.6548C31.8569 33.3778 32.0735 33.1352 32.244 32.9268C32.4168 32.7161 32.5458 32.5161 32.631 32.3267C32.7163 32.1373 32.7589 31.9361 32.7589 31.723C32.7589 31.4815 32.7021 31.2732 32.5884 31.098C32.4748 30.9205 32.3197 30.7843 32.1232 30.6896C31.9267 30.5926 31.7054 30.544 31.4592 30.544C31.1987 30.544 30.9715 30.5973 30.7773 30.7038C30.5832 30.8104 30.4341 30.9607 30.3299 31.1548C30.2257 31.349 30.1737 31.5762 30.1737 31.8366H29.1261C29.1261 31.3939 29.2279 31.0069 29.4315 30.6754C29.6351 30.344 29.9144 30.0871 30.2695 29.9048C30.6246 29.7202 31.0283 29.6278 31.4805 29.6278C31.9374 29.6278 32.3398 29.719 32.6879 29.9013C33.0382 30.0812 33.3117 30.3274 33.5082 30.6399C33.7047 30.95 33.8029 31.3004 33.8029 31.6911C33.8029 31.9609 33.752 32.2249 33.6502 32.483C33.5508 32.741 33.3768 33.0286 33.1282 33.3459C32.8796 33.6607 32.534 34.0431 32.0913 34.4929L30.646 36.0057V36.0589H33.9201V37H29.1332Z" fill="white"/>
</g>
<defs>
<clipPath id="clip0_54058_382">
<rect width="40" height="40" fill="white"/>
</clipPath>
</defs>
</svg>
