<svg width="40" height="40" viewBox="0 0 40 40" fill="none" xmlns="http://www.w3.org/2000/svg">
<path d="M27.9906 6.25003C30.1972 6.25003 32.2706 7.11003 33.8306 8.66836C35.3776 10.2182 36.2464 12.3186 36.2464 14.5084C36.2464 16.6982 35.3776 18.7985 33.8306 20.3484L20.0006 34.18L6.16891 20.3484C4.62243 18.7986 3.75391 16.6986 3.75391 14.5092C3.75391 12.3198 4.62243 10.2198 6.16891 8.67003C6.93397 7.90053 7.84406 7.29042 8.8465 6.87502C9.84894 6.45963 10.9238 6.2472 12.0089 6.25003C14.2156 6.25003 16.2889 7.11003 17.8489 8.66836L19.1156 9.93503L20.0006 10.82L20.8839 9.93503L22.1506 8.66836C22.9159 7.89938 23.8261 7.28973 24.8285 6.87464C25.8309 6.45955 26.9056 6.24726 27.9906 6.25003Z" stroke="#111111" stroke-width="1.5"/>
</svg>
